<svg xmlns="http://www.w3.org/2000/svg" width="900" height="540" viewBox="0 0 900 540" font-family="-apple-system,Segoe UI,Roboto,sans-serif">
  <rect width="900" height="540" fill="#1b1d21"/>
  <!-- tab bar -->
  <rect x="0" y="0" width="900" height="34" fill="#2b2e33"/>
  <rect x="8" y="4" width="120" height="26" rx="3" fill="#1b1d21" stroke="#444649"/>
  <rect x="8" y="4" width="120" height="2" fill="#75b6fd"/>
  <text x="22" y="21" fill="#f0f0f0" font-size="12">widgets</text>
  <text x="112" y="21" fill="#a6a6a6" font-size="12">×</text>
  <rect x="132" y="4" width="120" height="26" rx="3" fill="#2b2e33" stroke="#444649"/>
  <text x="146" y="21" fill="#a6a6a6" font-size="12">develop</text>
  <text x="266" y="21" fill="#a6a6a6" font-size="16">＋</text>
  <text x="788" y="21" fill="#75b6fd" font-size="12">Explorer v1.0</text>

  <!-- toolbar -->
  <rect x="0" y="34" width="900" height="32" fill="#292d31"/>
  <text x="14" y="55" fill="#a6a6a6" font-size="13">← → ↑ ⟳</text>
  <rect x="110" y="40" width="60" height="20" rx="3" fill="#1b1d21" stroke="#444649"/>
  <text x="120" y="54" fill="#f0f0f0" font-size="11">Split</text>
  <text x="190" y="55" fill="#75b6fd" font-size="12">/ home / demo / projects / widgets</text>
  <rect x="690" y="40" width="120" height="20" rx="3" fill="#1b1d21" stroke="#444649"/>
  <text x="700" y="54" fill="#a6a6a6" font-size="11">Search…</text>
  <rect x="820" y="40" width="66" height="20" rx="3" fill="#1b1d21" stroke="#444649"/>
  <text x="830" y="54" fill="#f0f0f0" font-size="11">⌂ Repos ▾</text>

  <!-- repo strip -->
  <rect x="0" y="66" width="900" height="26" fill="#1e2b40"/>
  <text x="14" y="83" fill="#f0f0f0" font-size="12" font-weight="bold">main ▾</text>
  <circle cx="64" cy="79" r="4" fill="#f0ab00"/>
  <text x="80" y="83" fill="#a6a6a6" font-size="12">acme/widgets · ↑1 ↓0</text>
  <rect x="690" y="70" width="58" height="18" rx="3" fill="#1b1d21" stroke="#444649"/>
  <text x="700" y="83" fill="#a6a6a6" font-size="11">Fetch</text>
  <rect x="752" y="70" width="58" height="18" rx="3" fill="#1b1d21" stroke="#444649"/>
  <text x="762" y="83" fill="#a6a6a6" font-size="11">Pull</text>
  <rect x="814" y="70" width="72" height="18" rx="3" fill="#0d6efd"/>
  <text x="824" y="83" fill="#fff" font-size="11">Push</text>

  <!-- column header -->
  <rect x="0" y="92" width="450" height="24" fill="#23262b"/>
  <rect x="450" y="92" width="450" height="24" fill="#23262b"/>
  <line x1="450" y1="92" x2="450" y2="540" stroke="#444649"/>
  <text x="40" y="108" fill="#a6a6a6" font-size="11">NAME ▲</text>
  <text x="360" y="108" fill="#a6a6a6" font-size="11">SIZE</text>
  <text x="490" y="108" fill="#a6a6a6" font-size="11">NAME ▲</text>
  <text x="810" y="108" fill="#a6a6a6" font-size="11">SIZE</text>

  <!-- left pane rows -->
  <g font-size="12" fill="#f0f0f0">
    <rect x="0" y="116" width="450" height="22" fill="#1e3a5f"/>
    <text x="22" y="131">📁 src</text>
    <text x="22" y="157">📁 tests</text>
    <text x="22" y="183">📁 docs</text>
    <text x="22" y="209">📄 README.md</text><text x="360" y="209" fill="#a6a6a6">4.2 KB</text>
    <text x="22" y="235">📄 package.json</text><text x="360" y="235" fill="#a6a6a6">1.1 KB</text>
    <text x="22" y="261">📄 LICENSE</text><text x="360" y="261" fill="#a6a6a6">1.0 KB</text>
    <text x="22" y="287">📄 .gitignore</text><text x="360" y="287" fill="#a6a6a6">120 B</text>
    <text x="22" y="313">📄 index.js</text><text x="360" y="313" fill="#a6a6a6">8.4 KB</text>
  </g>
  <!-- right pane rows -->
  <g font-size="12" fill="#f0f0f0">
    <text x="490" y="131">📁 components</text>
    <text x="490" y="157">📁 utils</text>
    <text x="490" y="183">📄 app.js</text><text x="810" y="183" fill="#a6a6a6">12 KB</text>
    <text x="490" y="209">📄 router.js</text><text x="810" y="209" fill="#a6a6a6">3.7 KB</text>
    <text x="490" y="235">📄 styles.css</text><text x="810" y="235" fill="#a6a6a6">6.2 KB</text>
  </g>

  <!-- branch dropdown (open) overlay -->
  <rect x="10" y="92" width="240" height="180" rx="5" fill="#23262b" stroke="#444649"/>
  <text x="22" y="110" fill="#a6a6a6" font-size="10">SWITCH BRANCH</text>
  <rect x="14" y="116" width="232" height="20" fill="#1e3a5f"/>
  <text x="22" y="130" fill="#f0f0f0" font-size="12">main</text>
  <text x="22" y="152" fill="#f0f0f0" font-size="12">develop</text>
  <text x="22" y="174" fill="#f0f0f0" font-size="12">feature.login</text>
  <line x1="14" y1="186" x2="246" y2="186" stroke="#444649"/>
  <text x="22" y="202" fill="#a6a6a6" font-size="10">LOCAL COPIES OF THIS REPO</text>
  <text x="22" y="222" fill="#75b6fd" font-size="11">⌂ widgets (main)</text>
  <text x="22" y="236" fill="#a6a6a6" font-size="9">/home/demo/projects/widgets</text>
  <text x="22" y="254" fill="#75b6fd" font-size="11">⌂ widgets (develop)</text>
  <text x="22" y="268" fill="#a6a6a6" font-size="9">/home/demo/projects/widgets-dev</text>
</svg>
